<svg width="584" height="325" fill="none" xmlns="http://www.w3.org/2000/svg"><path opacity=".1" d="M446.547 476.998 39.906 368.129a54.527 54.527 0 0 1-18.47-8.89c-5.517-4.093-10.164-9.177-13.676-14.962-3.512-5.786-5.82-12.158-6.792-18.753a48.572 48.572 0 0 1 1.126-19.681l71.85-267.927c2.294-8.554 6.895-16.329 13.342-22.543 6.447-6.215 14.512-10.652 23.386-12.864 8.875-2.212 18.245-2.122 27.171.26 8.926 2.383 17.093 6.975 23.681 13.315l151.58 146.084 204.11-50.856c8.878-2.199 18.248-2.095 27.171.301 8.922 2.395 17.082 6.999 23.66 13.348 6.579 6.349 11.344 14.221 13.817 22.824 2.473 8.603 2.567 17.635.273 26.188l-71.85 267.928c-3.457 12.893-12.111 23.83-24.061 30.41-11.95 6.58-26.22 8.266-39.677 4.687Z" fill="#281464"/></svg>