<svg width="617" height="585" fill="none" xmlns="http://www.w3.org/2000/svg"><path d="M449.22 581.913-47.102 448.924a66.517 66.517 0 0 1-22.545-10.859c-6.732-4.999-12.404-11.21-16.69-18.277-4.287-7.067-7.104-14.851-8.29-22.907a59.381 59.381 0 0 1 1.374-24.041L-5.557 45.555c2.8-10.45 8.415-19.946 16.284-27.538C18.596 10.425 28.44 5.006 39.27 2.304 50.102-.4 61.54-.29 72.434 2.622c10.894 2.91 20.863 8.52 28.904 16.264l185.009 178.448 249.124-62.122c10.836-2.687 22.273-2.56 33.163.366 10.891 2.927 20.85 8.55 28.879 16.306s13.845 17.371 16.864 27.88c3.018 10.509 3.133 21.542.333 31.991L527.015 539.04c-4.22 15.749-14.783 29.11-29.368 37.148-14.586 8.038-32.002 10.097-48.427 5.725Z" fill="#F9F5FF"/></svg>