<svg width="574" height="231" fill="none" xmlns="http://www.w3.org/2000/svg"><path d="M435.156 482.112 24.38 372.046a55.072 55.072 0 0 1-18.658-8.988C.15 358.92-4.545 353.78-8.092 347.931c-3.548-5.849-5.88-12.291-6.862-18.959a49.142 49.142 0 0 1 1.138-19.897l72.58-270.874c2.317-8.648 6.965-16.508 13.478-22.791 6.512-6.284 14.66-10.77 23.624-13.005 8.965-2.237 18.43-2.146 27.447.263s17.267 7.051 23.922 13.461L300.356 163.82l206.185-51.415c8.968-2.224 18.434-2.119 27.447.303 9.013 2.422 17.256 7.076 23.901 13.495 6.646 6.42 11.459 14.377 13.957 23.075 2.499 8.698 2.594 17.829.276 26.477l-72.58 270.874c-3.493 13.035-12.234 24.092-24.306 30.745-12.071 6.652-26.486 8.357-40.08 4.738Z" fill="#E9D7FE"/></svg>