<svg width="574" height="231" viewBox="0 0 574 231" fill="none" xmlns="http://www.w3.org/2000/svg">
<path d="M435.156 482.112L24.3804 372.046C17.6342 370.25 11.2937 367.196 5.72169 363.058C0.149674 358.92 -4.5445 353.78 -8.09222 347.931C-11.6399 342.082 -13.9716 335.64 -14.9537 328.972C-15.9359 322.305 -15.5493 315.544 -13.816 309.075L58.7645 38.2011C61.0814 29.5531 65.7295 21.6928 72.2419 15.4096C78.7543 9.12632 86.9018 4.64125 95.8662 2.40475C104.831 0.16825 114.296 0.259054 123.313 2.66804C132.33 5.07703 140.58 9.71939 147.235 16.129L300.356 163.82L506.541 112.405C515.509 110.181 524.975 110.286 533.988 112.708C543.001 115.13 551.244 119.784 557.889 126.203C564.535 132.623 569.348 140.58 571.846 149.278C574.345 157.976 574.44 167.107 572.122 175.755L499.542 446.629C496.049 459.664 487.308 470.721 475.236 477.374C463.165 484.026 448.75 485.731 435.156 482.112Z" fill="#E9D7FE"/>
</svg>
