<svg width="314" height="214" fill="none" xmlns="http://www.w3.org/2000/svg"><path d="m230.223 287.779-245.514-65.786a32.91 32.91 0 0 1-11.152-5.371 31.87 31.87 0 0 1-8.256-9.041 30.402 30.402 0 0 1-4.101-11.332 29.37 29.37 0 0 1 .68-11.892L5.26 22.46a29.55 29.55 0 0 1 8.055-13.622c3.893-3.756 8.762-6.436 14.12-7.773a32.836 32.836 0 0 1 16.405.157 32.839 32.839 0 0 1 14.297 8.046l91.518 88.272 123.234-30.73a32.84 32.84 0 0 1 16.405.181 32.83 32.83 0 0 1 14.285 8.067c3.972 3.836 6.849 8.592 8.342 13.79 1.493 5.2 1.55 10.657.165 15.826l-43.38 161.897c-2.088 7.79-7.312 14.399-14.527 18.375-7.215 3.977-15.831 4.995-23.956 2.833Z" fill="#E9D7FE"/></svg>