<svg width="584" height="234" viewBox="0 0 584 234" fill="none" xmlns="http://www.w3.org/2000/svg">
<path opacity="0.1" d="M446.128 476.836L39.821 367.966C33.1482 366.19 26.8767 363.169 21.3653 359.077C15.8539 354.984 11.2108 349.899 7.70163 344.114C4.19249 338.329 1.88622 331.957 0.914756 325.362C-0.0567041 318.767 0.325712 312.079 2.04014 305.681L73.831 37.7537C76.1228 29.1998 80.7203 21.4251 87.1618 15.2102C93.6034 8.99527 101.662 4.55899 110.529 2.34682C119.396 0.134654 128.759 0.224471 137.677 2.60725C146.596 4.99003 154.756 9.58189 161.339 15.9217L312.794 162.006L516.736 111.15C525.607 108.951 534.97 109.054 543.885 111.45C552.8 113.846 560.953 118.45 567.526 124.799C574.099 131.148 578.86 139.019 581.331 147.622C583.802 156.225 583.896 165.257 581.604 173.811L509.813 441.738C506.359 454.631 497.712 465.568 485.772 472.149C473.832 478.729 459.574 480.415 446.128 476.836Z" fill="#281464"/>
</svg>
