<svg width="584" height="234" fill="none" xmlns="http://www.w3.org/2000/svg"><path opacity=".1" d="M446.128 476.836 39.821 367.966a54.48 54.48 0 0 1-18.456-8.889c-5.511-4.093-10.154-9.178-13.663-14.963-3.51-5.785-5.816-12.157-6.787-18.752a48.61 48.61 0 0 1 1.125-19.681L73.831 37.754c2.292-8.554 6.89-16.329 13.33-22.544 6.443-6.215 14.502-10.65 23.369-12.863 8.867-2.212 18.23-2.123 27.148.26 8.919 2.383 17.079 6.975 23.662 13.315l151.455 146.084 203.942-50.856c8.871-2.199 18.234-2.096 27.149.3s17.068 7 23.641 13.349c6.573 6.349 11.334 14.22 13.805 22.823s2.565 17.635.273 26.189l-71.791 267.927c-3.454 12.893-12.101 23.83-24.041 30.411-11.94 6.58-26.198 8.266-39.644 4.687Z" fill="#281464"/></svg>