<svg width="173" height="40" fill="none" xmlns="http://www.w3.org/2000/svg"><g clip-path="url(#a)"><path d="M31.26 30.118H9.697c-.354 0-.705-.07-1.032-.208a2.689 2.689 0 0 1-.875-.595 2.75 2.75 0 0 1-.585-.891A2.793 2.793 0 0 1 7 27.372V12.255c0-.483.124-.957.361-1.375a2.73 2.73 0 0 1 .986-1.007 2.657 2.657 0 0 1 2.696-.002l9.438 5.554 9.423-5.554a2.657 2.657 0 0 1 2.696.002c.41.242.75.589.986 1.007.237.418.361.892.361 1.375v15.117c0 .727-.283 1.425-.787 1.94a2.666 2.666 0 0 1-1.9.806Z" fill="#C882FF"/><path d="M56.271 15.192c-1.976 0-3.431.766-4.366 2.298a4.412 4.412 0 0 0-1.7-1.742 4.297 4.297 0 0 0-2.348-.556 4.487 4.487 0 0 0-2.32.503 4.596 4.596 0 0 0-1.76 1.623v-1.744h-3.08v14.545h3.08V21.97a4.2 4.2 0 0 1 .869-2.86 2.942 2.942 0 0 1 1.04-.753c.397-.171.825-.25 1.255-.234.371-.022.742.04 1.086.184.344.144.652.364.9.646.502.669.75 1.5.697 2.34v8.825h3.08V21.97c0-1.258.276-2.216.828-2.86a2.865 2.865 0 0 1 1.037-.74 2.815 2.815 0 0 1 1.249-.213 2.52 2.52 0 0 1 1.104.192c.35.146.663.368.92.651a3.38 3.38 0 0 1 .743 2.327v8.79h3.103V21.1a6.08 6.08 0 0 0-1.486-4.29 5.14 5.14 0 0 0-1.795-1.241 5.053 5.053 0 0 0-2.136-.376Zm19.596 2.445c-1.16-1.63-2.823-2.445-4.992-2.445a6.6 6.6 0 0 0-2.741.56 6.715 6.715 0 0 0-2.28 1.652 7.574 7.574 0 0 0-1.579 2.508 7.691 7.691 0 0 0-.505 2.936 7.694 7.694 0 0 0 .506 2.936 7.58 7.58 0 0 0 1.579 2.508 6.714 6.714 0 0 0 2.279 1.651 6.6 6.6 0 0 0 2.74.561c2.182 0 3.846-.824 4.993-2.474v2.093h3.08v-14.55h-3.08v2.064Zm-1.28 8.548a4.626 4.626 0 0 1-3.226 1.317 4.626 4.626 0 0 1-3.225-1.317 4.665 4.665 0 0 1-.968-1.537 4.736 4.736 0 0 1-.313-1.8c-.023-.616.08-1.23.3-1.804a4.5 4.5 0 0 1 .98-1.533 4.572 4.572 0 0 1 3.226-1.339c1.205 0 2.362.48 3.225 1.34.427.436.76.957.981 1.532.22.574.322 1.188.3 1.804a4.672 4.672 0 0 1-.308 1.802 4.6 4.6 0 0 1-.973 1.535Zm10.904-8.171v-2.441h-3.085v14.545h3.085v-7.332c0-1.494.436-2.56 1.31-3.2a4.543 4.543 0 0 1 3.084-.872v-3.403c-2.15 0-3.615.9-4.394 2.703Zm18.65-2.447h-3.763l-5.534 6.312V9.875h-3.085v20.242h3.085v-6.65l5.847 6.65h3.679l-6.502-7.418 6.273-7.132Zm4.716.007h-3.081v14.55h3.081v-14.55Zm17.552-4.129h-3.085v4.129h-6.479v-4.129h-3.08v4.129h-2.622v2.77h2.622v7.236c0 1.907.514 3.212 1.542 3.914 1.029.703 2.721.91 5.077.625v-2.822c-.781.038-1.431.043-1.954 0a1.761 1.761 0 0 1-1.183-.434 1.75 1.75 0 0 1-.33-.607 1.788 1.788 0 0 1-.072-.69v-7.222h6.479v7.236c0 1.907.514 3.212 1.542 3.914 1.029.703 2.718.91 5.067.625v-2.822c-.776.038-1.43.043-1.954 0a1.759 1.759 0 0 1-1.182-.434 1.751 1.751 0 0 1-.398-1.297v-7.222h3.534v-2.77h-3.534l.01-4.129Zm9.415 4.129h-3.081v14.55h3.081v-14.55Zm10.161-.381a7.046 7.046 0 0 0-2.939.519 7.167 7.167 0 0 0-2.479 1.693 7.514 7.514 0 0 0-1.6 2.502 7.61 7.61 0 0 0-.512 2.942 7.58 7.58 0 0 0 .511 2.977 7.451 7.451 0 0 0 1.63 2.525 7.683 7.683 0 0 0 2.591 1.655 7.58 7.58 0 0 0 3.018.5c2.776 0 4.859-1.059 6.249-3.176l-2.543-1.51a4.221 4.221 0 0 1-1.607 1.38 4.137 4.137 0 0 1-2.062.416 4.909 4.909 0 0 1-3.01-.9 4.044 4.044 0 0 1-1.552-2.532h11.354c.07-.432.108-.869.112-1.306a7.831 7.831 0 0 0-2.024-5.445 6.686 6.686 0 0 0-2.328-1.693 6.576 6.576 0 0 0-2.809-.547Zm-4.394 6.674c.05-.556.211-1.096.471-1.588s.615-.924 1.044-1.272a4.252 4.252 0 0 1 2.851-.954 3.976 3.976 0 0 1 3.66 2.236c.241.492.381 1.029.411 1.578h-8.437Zm23.993 2.217a3.465 3.465 0 0 0-1.272-1.34 8.562 8.562 0 0 0-1.565-.772 16.78 16.78 0 0 0-1.744-.477 8.371 8.371 0 0 1-1.996-.8 1.236 1.236 0 0 1-.491-.45 1.269 1.269 0 0 1-.191-.643 1.305 1.305 0 0 1 .589-1.148c.446-.29.967-.433 1.495-.41 1.312 0 2.207.553 2.683 1.659l2.595-1.483a5.425 5.425 0 0 0-2.122-2.226 6.2 6.2 0 0 0-3.156-.801 5.743 5.743 0 0 0-3.739 1.225c-.481.38-.868.87-1.128 1.43a3.999 3.999 0 0 0-.368 1.797c-.034.663.11 1.322.416 1.907.303.547.75.996 1.29 1.297a9.834 9.834 0 0 0 1.543.758c.566.205 1.141.38 1.725.524 1.81.449 2.714 1.07 2.711 1.864 0 1.081-.809 1.623-2.426 1.626-1.618.003-2.672-.694-3.165-2.093l-2.655 1.564a5.249 5.249 0 0 0 2.197 2.503 6.953 6.953 0 0 0 3.623.906 6.451 6.451 0 0 0 3.968-1.197 3.82 3.82 0 0 0 1.205-1.436 3.906 3.906 0 0 0 .389-1.849 3.846 3.846 0 0 0-.411-1.935ZM107.319 13.39c1.053 0 1.907-.87 1.907-1.945 0-1.074-.854-1.945-1.907-1.945s-1.907.87-1.907 1.945c0 1.074.854 1.945 1.907 1.945Zm26.961 0c1.054 0 1.907-.87 1.907-1.945 0-1.074-.853-1.945-1.907-1.945-1.053 0-1.907.87-1.907 1.945 0 1.074.854 1.945 1.907 1.945Z" fill="#281464"/></g><defs><clipPath id="a"><path fill="#fff" transform="translate(7 9.5)" d="M0 0h159v21H0z"/></clipPath></defs></svg>