<svg width="24" height="24" fill="none" xmlns="http://www.w3.org/2000/svg"><path d="M3.3 15.827c.472-.23 2.776-1.386 3.191-1.56.434-.154.737-.23 1.058.231.32.482 1.208 1.56 1.472 1.869.265.327.548.366 1.02.115.472-.23 1.983-.751 3.758-2.369 1.397-1.271 2.323-2.831 2.606-3.313.264-.481.037-.732-.208-.982-.208-.212-.472-.558-.699-.828-.226-.27-.32-.482-.472-.79-.15-.327-.075-.597.038-.828.113-.231 1.058-2.58 1.435-3.544.378-.924.774-.809 1.058-.828h.906c.321 0 .812.116 1.246.597.416.482 1.624 1.637 1.624 3.987s-1.68 4.622-1.907 4.93c-.226.328-3.304 5.143-7.987 7.204-1.115.5-1.983.79-2.663 1.002-1.114.365-2.134.308-2.946.192-.906-.135-2.776-1.156-3.153-2.273-.397-1.117-.397-2.06-.265-2.272.132-.212.416-.309.888-.54Z" fill="#281464"/></svg>