<svg width="92" height="76" fill="none" xmlns="http://www.w3.org/2000/svg"><path d="M70.306 75.096 6.928 58.114a8.498 8.498 0 0 1-2.88-1.387 8.224 8.224 0 0 1-2.13-2.334 7.847 7.847 0 0 1-1.06-2.925 7.582 7.582 0 0 1 .176-3.07L12.233 6.605a7.628 7.628 0 0 1 2.08-3.517 8.048 8.048 0 0 1 3.644-2.006 8.477 8.477 0 0 1 4.235.04 8.478 8.478 0 0 1 3.69 2.077l23.626 22.788 31.812-7.933a8.478 8.478 0 0 1 4.235.047 8.477 8.477 0 0 1 3.688 2.082 8.048 8.048 0 0 1 2.153 3.56c.386 1.342.4 2.75.043 4.085L80.24 69.621c-.539 2.011-1.887 3.717-3.75 4.744-1.862 1.026-4.087 1.29-6.184.731Z" fill="#E9D7FE"/></svg>